<?xml version="1.0" encoding="utf-8"?>
<!-- Generator: Adobe Illustrator 25.2.3, SVG Export Plug-In . SVG Version: 6.00 Build 0)  -->
<svg version="1.1" xmlns="http://www.w3.org/2000/svg" xmlns:xlink="http://www.w3.org/1999/xlink" x="0px" y="0px"
	 viewBox="0 0 100 99.9" style="enable-background:new 0 0 100 99.9;" xml:space="preserve">
<style type="text/css">
	.st0{fill:#FFFFFF;}
</style>
<g id="Layer_2">
</g>
<g id="Layer_1">
	<g>
		<path class="st0" d="M5273.1,2400.1v-2c0-2.8-5-4-9.7-4s-9.7,1.3-9.7,4v2c0,1.8,0.7,3.6,2,4.9l5,4.9c0.3,0.3,0.4,0.6,0.4,1v6.4
			c0,0.4,0.2,0.7,0.6,0.8l2.9,0.9c0.5,0.1,1-0.2,1-0.8v-7.2c0-0.4,0.2-0.7,0.4-1l5.1-5C5272.4,2403.7,5273.1,2401.9,5273.1,2400.1z
			 M5263.4,2400c-4.8,0-7.4-1.3-7.5-1.8l0,0c0.1-0.5,2.7-1.8,7.5-1.8s7.3,1.3,7.5,1.8C5270.7,2398.7,5268.2,2400,5263.4,2400z"/>
		<path class="st0" d="M5268.4,2410.3c-0.6,0-1,0.4-1,1s0.4,1,1,1h4.3c0.6,0,1-0.4,1-1s-0.4-1-1-1H5268.4z"/>
		<path class="st0" d="M5272.7,2413.7h-4.3c-0.6,0-1,0.4-1,1s0.4,1,1,1h4.3c0.6,0,1-0.4,1-1
			C5273.7,2414.1,5273.3,2413.7,5272.7,2413.7z"/>
		<path class="st0" d="M5272.7,2417h-4.3c-0.6,0-1,0.4-1,1s0.4,1,1,1h4.3c0.6,0,1-0.4,1-1C5273.7,2417.5,5273.3,2417,5272.7,2417z"
			/>
	</g>
	<g>
		<path class="st0" d="M94,29.8L53.1,3.4c-1.9-1.2-4.3-1.2-6.2,0L6,29.8c-2.7,1.7-3.4,5.2-1.7,7.9c1.7,2.6,5.2,3.4,7.9,1.7L19,35
			v14.6c3.2-1.3,6.7-2,10.4-2c14.8,0,27,11.5,28.1,26.1h17.9c3.2,0,5.7-2.6,5.7-5.7V35l6.8,4.4c1,0.6,2,0.9,3.1,0.9
			c1.9,0,3.7-0.9,4.8-2.6C97.4,35,96.7,31.5,94,29.8z"/>
		<path class="st0" d="M29.3,54c-12,0-21.8,9.7-21.8,21.8s9.7,21.8,21.8,21.8c12,0,21.8-9.7,21.8-21.8S41.3,54,29.3,54z M31.5,86.6
			v2.3c0,0.5-0.4,0.9-0.9,0.9H28c-0.5,0-0.9-0.4-0.9-0.9v-2.2c-2.7-0.3-4.8-2.5-5-5.2c0-0.2,0.1-0.5,0.2-0.7
			c0.2-0.2,0.4-0.3,0.7-0.3h2.6c0.4,0,0.8,0.3,0.9,0.7c0.1,0.6,0.7,1.1,1.4,1.1h2.3c1.2,0,2.2-0.9,2.3-2c0.1-0.6-0.1-1.2-0.6-1.7
			c-0.4-0.5-1-0.7-1.6-0.7h-1.7c-3.5,0-6.5-2.6-6.8-5.9c-0.3-3.4,2-6.5,5.3-7.1v-2.3c0-0.5,0.4-0.9,0.9-0.9h2.6
			c0.5,0,0.9,0.4,0.9,0.9v2.2c2.7,0.3,4.8,2.5,5,5.2c0,0.2-0.1,0.5-0.2,0.7c-0.2,0.2-0.4,0.3-0.7,0.3H33c-0.4,0-0.8-0.3-0.9-0.7
			c-0.1-0.6-0.7-1.1-1.4-1.1h-2.3c-1.2,0-2.2,0.9-2.3,2c-0.1,0.6,0.1,1.2,0.6,1.7c0.4,0.5,1,0.7,1.6,0.7h2c1.9,0,3.6,0.8,4.9,2.2
			c1.3,1.4,1.9,3.2,1.7,5.1C36.6,83.6,34.4,86,31.5,86.6z"/>
	</g>
</g>
</svg>
