<?xml version="1.0" encoding="utf-8"?>
<!-- Generator: Adobe Illustrator 25.2.3, SVG Export Plug-In . SVG Version: 6.00 Build 0)  -->
<svg version="1.1" id="Layer_1" xmlns="http://www.w3.org/2000/svg" xmlns:xlink="http://www.w3.org/1999/xlink" x="0px" y="0px"
	 viewBox="0 0 100 100" style="enable-background:new 0 0 100 100;" xml:space="preserve">
<style type="text/css">
	.st0{fill:#FFFFFF;}
</style>
<g>
	<g>
		<path class="st0" d="M97.2,2.8c-3.7-3.7-9.6-3.7-13.2,0c-0.7,0.7-1.2,1.4-1.7,2.3c1.9,1.5,3.4,3.5,4.3,5.7
			c1.3,3.4,1.2,7.1-0.2,10.4l-5.1,11.5v58.1c0,5.2,4.2,9.4,9.4,9.4c5.2,0,9.4-4.2,9.4-9.4V9.4C100,6.9,99,4.5,97.2,2.8z"/>
		<path class="st0" d="M82.5,19.4c2.1-4.7-0.1-10.3-4.8-12.4C73,5,67.5,7.1,65.4,11.9l-1,2.2c4.9,4.3,5.7,11.6,2,17L39,71.2L32,86.8
			c-2.1,4.7,0.1,10.3,4.8,12.4c1.2,0.5,2.5,0.8,3.8,0.8c3.7,0,7.1-2.2,8.6-5.6l32-72.1L82.5,19.4z"/>
		<path class="st0" d="M41.9,59.5l6.5-9.6L63,28.7c2.7-3.9,1.8-9.2-2-12.1c-0.2-0.2-0.3-0.3-0.5-0.4c-0.4-0.3-0.8-0.5-1.2-0.7
			c-4.2-2-9.3-0.6-12,3.2L1.6,85.4C0.6,86.9,0,88.7,0,90.6c0,5.2,4.2,9.4,9.3,9.4c3.1,0,6-1.5,7.8-4.1l18.2-26.7L41.9,59.5z"/>
	</g>
</g>
</svg>
