<?xml version="1.0" encoding="utf-8"?>
<!-- Generator: Adobe Illustrator 25.2.3, SVG Export Plug-In . SVG Version: 6.00 Build 0)  -->
<svg version="1.1" id="Layer_1" xmlns="http://www.w3.org/2000/svg" xmlns:xlink="http://www.w3.org/1999/xlink" x="0px" y="0px"
	 viewBox="0 0 100 90" style="enable-background:new 0 0 100 90;" xml:space="preserve">
<style type="text/css">
	.st0{fill:#FFFFFF;stroke:#FFFFFF;stroke-width:2;stroke-miterlimit:10;}
</style>
<path class="st0" d="M50,88L50,88V76l0,0V88z M10,56h25.1L15.9,88H20l21-36H10V56z M48.2,66.5h3.5v-8h-3.5V66.5z M80,88h4.1L64.9,56
	H90v-4H58.9L80,88z M82,32v-8H70v8H42v-8H26V8H14v24h-4v4h8V12h4v16h16v8h36v-8h4v8h12v-4H82z M48.2,54.5h3.5v-4h-3.5V54.5z"/>
</svg>
