<?xml version="1.0" encoding="utf-8"?>
<!-- Generator: Adobe Illustrator 25.2.3, SVG Export Plug-In . SVG Version: 6.00 Build 0)  -->
<svg version="1.1" id="Layer_1" xmlns="http://www.w3.org/2000/svg" xmlns:xlink="http://www.w3.org/1999/xlink" x="0px" y="0px"
	 viewBox="0 0 64 63" style="enable-background:new 0 0 64 63;" xml:space="preserve">
<style type="text/css">
	.st0{fill:#FFFFFF;}
</style>
<g>
	<path class="st0" d="M25,7c2.2-0.6,4.6-1,7-1c6.9,0,13.2,2.7,17.9,7.1L48,15l8,2l-2-8l-1.3,1.3C47.3,5.2,40,2,32,2
		c-2.8,0-5.5,0.4-8,1.1V7L25,7z"/>
	<path class="st0" d="M3.1,40H7l0-1c-0.6-2.2-1-4.6-1-7c0-6.9,2.7-13.2,7.1-17.9L15,16l2-8l-8,2l1.3,1.3C5.2,16.7,2,24,2,32
		C2,34.8,2.4,37.5,3.1,40z"/>
	<path class="st0" d="M58,29c0,6.9-2.7,13.2-7.1,17.9L49,45l-2,8l8-2l-1.3-1.3C58.8,44.3,62,37,62,29c0-2.8-0.4-5.5-1.1-8H57l0,1
		C57.7,24.2,58,26.6,58,29z"/>
	<path class="st0" d="M44,55V42h3c3.3,0,6-2.7,6-6h-4c-2.1,0-3.9,1.1-5,2.7V32h3c3.3,0,6-2.7,6-6h-4c-2.1,0-3.9,1.1-5,2.7V28
		c0-3.3-2.7-6-6-6h-4c0,3.3,2.7,6,6,6h2v6.7c-1.1-1.6-2.9-2.7-5-2.7h-4c0,3.3,2.7,6,6,6h3v17H32V21H14v14h14v20h-2V37H12v18H1v2v6
		h62v-6v-2H44z M18,33h-2v-2h2V33z M18,29h-2v-2h2V29z M18,25h-2v-2h2V25z M22,33h-2v-2h2V33z M22,29h-2v-2h2V29z M22,25h-2v-2h2V25
		z M26,33h-2v-2h2V33z M26,29h-2v-2h2V29z M26,25h-2v-2h2V25z M28,23h2v2h-2V23z M28,27h2v2h-2V27z M28,31h2v2h-2V31z M22,39h2v2h-2
		V39z M22,43h2v2h-2V43z M22,47h2v2h-2V47z M18,39h2v2h-2V39z M18,43h2v2h-2V43z M18,47h2v2h-2V47z M14,39h2v2h-2V39z M14,43h2v2h-2
		V43z M14,47h2v2h-2V47z"/>
</g>
</svg>
